<?xml version="1.0" encoding="UTF-8" standalone="no"?>
<svg width="70px" height="79px" viewBox="0 0 70 79" version="1.1" xmlns="http://www.w3.org/2000/svg" xmlns:xlink="http://www.w3.org/1999/xlink" xmlns:sketch="http://www.bohemiancoding.com/sketch/ns">
    <!-- Generator: Sketch 3.2.2 (9983) - http://www.bohemiancoding.com/sketch -->
    <title>logo</title>
    <desc>Created with Sketch.</desc>
    <defs>
        <path d="M29.8073715,2.00430647 C32.675181,0.345073822 37.3235532,0.344341494 40.1926285,2.00430647 L64.8073715,16.2456935 C67.675181,17.9049262 70,21.938683 70,25.247706 L70,53.752294 C70,57.0647356 67.6764468,61.0943415 64.8073715,62.7543065 L40.1926285,76.9956935 C37.324819,78.6549262 32.6764468,78.6556585 29.8073715,76.9956935 L5.19262846,62.7543065 C2.32481895,61.0950738 2.37557719e-14,57.061317 2.193924e-14,53.752294 L6.29126893e-15,25.247706 C4.47286028e-15,21.9352644 2.3235532,17.9056585 5.19262846,16.2456935 L29.8073715,2.00430647 Z M21.9898833,37.0044002 L33,37.0044002 L33,41.9835993 L21.9898833,41.9835993 L21.9898833,44.9867195 L33,44.9867195 L33,52 L15,52 L15,27 L33,27 L33,34.0062803 L21.9898833,34.0072803 L21.9898833,37.0044002 Z M36,27 L36,52 L46.596559,52 C50.0366414,52 52.895482,50.8535045 55.3368945,48.3815921 C57.7674518,45.9186758 59,42.9269921 59,39.4905042 C59,36.0800048 57.7674518,33.1003159 55.3368945,30.6373995 C52.8856138,28.1554916 50.0267731,27 46.596559,27 L36,27 Z M44.2821402,44.9870389 L43,44.9870389 L43,34 L46.2355798,34 C47.9982619,34 49.4044465,34.5742772 50.4134804,35.7068794 C51.4652523,36.8394816 51.9999986,38.1216351 51.9999986,39.5134596 C52.001041,40.9860419 51.4183448,42.3210369 50.3154957,43.3748754 C48.7477406,44.8743769 46.8808194,45 45.253648,45 C44.930507,45 44.6063236,44.9940179 44.2821402,44.9870389 Z" id="path-1"></path>
    </defs>
    <g id="Logo" stroke="none" stroke-width="1" fill="none" fill-rule="evenodd" sketch:type="MSPage">
        <g id="logo" sketch:type="MSArtboardGroup">
            <rect id="ED-background-overlay" opacity="0.2" fill="#18181C" sketch:type="MSShapeGroup" x="15" y="27" width="44" height="25"></rect>
            <g id="ED-symbol">
                <use fill="none" sketch:type="MSShapeGroup" xlink:href="#path-1"></use>
                <use fill="#E3E4E8" fill-rule="evenodd" xlink:href="#path-1"></use>
            </g>
        </g>
    </g>
</svg>