<svg height="128" viewBox="0 0 127.999 128" width="127.999" xmlns="http://www.w3.org/2000/svg"><style type="text/css"><![CDATA[
	.st0{fill:#fcc04d;}
]]></style><path class="st0" d="M64 7.989c-30.885 0-56.01 25.126-56.01 56.01 0 30.885 25.125 56.012 56.01 56.012 30.883 0 56.01-25.127 56.01-56.012 0-30.884-25.127-56.01-56.01-56.01zm15.83 35.358c0 .552-.447.999-1 1l-6.367.004c-4.201 0-4.969 1.636-4.969 4.858v6.684h10.92c.287 0 .561.124.75.34s.277.503.242.788l-1.555 12.033c-.064.499-.49.872-.992.872h-9.365v29.879c0 .553-.447 1-1 1h-12.424c-.553 0-1-.447-1-1v-29.879h-9.395c-.553 0-1-.447-1-1v-12.033c0-.553.447-1 1-1h9.395v-7.875c0-10.43 6.312-16.908 16.475-16.908 4.369 0 8.23.325 9.416.482.498.066.869.49.869.991v10.764z"/></svg>