<svg height="128" viewBox="0 0 127.999 128" width="127.999" xmlns="http://www.w3.org/2000/svg"><style type="text/css"><![CDATA[
	.st0{fill:#fcc04d;}
]]></style><path class="st0" d="M64.053 75.321c6.188 0 11.207-4.861 11.207-10.855 0-6-5.02-10.857-11.207-10.857-6.186 0-11.203 4.857-11.203 10.857 0 5.993 5.017 10.855 11.203 10.855zM76.748 53.924h6.305c1.381 0 2.512-1.131 2.512-2.514v-6.009c0-1.383-1.131-2.516-2.512-2.516h-6.305c-1.385 0-2.512 1.133-2.512 2.516v6.009c0 1.383 1.127 2.514 2.512 2.514zM81.398 65.072c0 9.276-7.768 16.802-17.346 16.802-9.576 0-17.342-7.525-17.342-16.802 0-1.667.254-3.271.719-4.79h-5.123v23.568c0 1.221.996 2.213 2.217 2.213h38.848c1.223 0 2.219-.992 2.219-2.213v-23.568h-4.91c.466 1.519.718 3.123.718 4.79zM63.998 7.989c-30.883 0-56.008 25.126-56.008 56.01 0 30.885 25.125 56.012 56.008 56.012 30.885 0 56.012-25.127 56.012-56.012 0-30.884-25.127-56.01-56.012-56.01zm27.898 77.33c0 3.938-3.223 7.158-7.16 7.158h-41.468c-3.938 0-7.162-3.22-7.162-7.158v-41.467c0-3.94 3.225-7.162 7.162-7.162h41.469c3.938 0 7.16 3.222 7.16 7.162v41.467z"/></svg>