<svg height="128" viewBox="0 0 128 128" width="128" xmlns="http://www.w3.org/2000/svg"><style type="text/css"><![CDATA[
	.st0{fill:#fcc04d;}
]]></style><path class="st0" d="M63.997 7.989c-30.883 0-56.009 25.126-56.009 56.01 0 30.885 25.126 56.012 56.009 56.012 30.885 0 56.011-25.127 56.011-56.012-.001-30.884-25.127-56.01-56.011-56.01zm29.81 41.402c-1.503 2.243-3.339 4.191-5.464 5.798.009.325.015.65.015.975 0 16.334-12.429 33.229-33.229 33.229-6.357 0-12.549-1.813-17.905-5.244-.392-.251-.559-.738-.402-1.177.155-.438.591-.717 1.056-.658.877.101 1.746.151 2.584.151 4.08 0 7.968-1.097 11.381-3.193-4.12-.995-7.514-4.067-8.842-8.221-.107-.337-.03-.704.204-.969.235-.264.593-.388.938-.317l.565.093c-3.473-2.213-5.726-6.104-5.726-10.412v-.143c0-.354.188-.682.493-.861.305-.181.683-.185.992-.013.435.241.886.45 1.349.626-1.754-2.166-2.742-4.893-2.742-7.762 0-2.178.577-4.322 1.668-6.199.165-.284.458-.469.786-.495.334-.025.646.11.854.365 5.319 6.522 13.051 10.625 21.368 11.381-.059-.493-.088-.992-.088-1.493 0-6.797 5.531-12.327 12.329-12.327 3.207 0 6.31 1.265 8.599 3.487 2.239-.499 4.373-1.345 6.351-2.519.356-.215.808-.183 1.133.077.325.258.457.69.331 1.086-.493 1.546-1.285 2.966-2.32 4.188.847-.256 1.677-.564 2.487-.924.408-.178.885-.07 1.171.271s.312.83.064 1.2z"/></svg>