<?xml version="1.0" encoding="UTF-8" standalone="no"?>
<svg width="230px" height="72px" viewBox="0 0 230 72" version="1.1" xmlns="http://www.w3.org/2000/svg" xmlns:xlink="http://www.w3.org/1999/xlink" xmlns:sketch="http://www.bohemiancoding.com/sketch/ns">
    <!-- Generator: Sketch 3.3.1 (12002) - http://www.bohemiancoding.com/sketch -->
    <title>WILDSIDE</title>
    <desc>Created with Sketch.</desc>
    <defs></defs>
    <g id="Page-1" stroke="none" stroke-width="1" fill="none" fill-rule="evenodd" sketch:type="MSPage">
        <g id="Desktop-HD" sketch:type="MSArtboardGroup" transform="translate(-605.000000, -120.000000)" fill="#FFFFFF">
            <g id="header" sketch:type="MSLayerGroup">
                <path d="M649.26,120.6 L641.78,171.024 L640.988,176.304 L634.212,131.864 L632.54,120.6 L632.188,120.6 L629.636,120.6 L624.972,120.6 L627.348,136 L622.156,171.024 L621.364,176.304 L614.676,131.864 L612.916,120.6 L605.436,120.6 L614.676,180.352 L616.26,190.912 L616.436,190.912 L617.492,190.648 L618.724,190.384 L620.924,189.768 C621.364,189.68 621.804,189.416 622.068,188.8 L622.156,187.832 L628.668,144.272 L634.212,180.352 L635.884,190.912 L636.06,190.912 L637.116,190.648 L638.348,190.384 L640.548,189.768 C641.076,189.68 641.428,189.416 641.604,188.8 L641.78,187.832 L651.812,120.6 L649.26,120.6 Z M657.268,120.6 L657.268,190.912 L658.5,190.648 L660.172,190.208 L661.404,189.944 L663.604,189.328 C664.308,189.064 664.836,188.448 664.836,187.832 L664.836,120.6 L657.268,120.6 Z M681.468,188.448 L681.468,120.6 L673.988,120.6 L673.988,190.912 L678.124,190.912 L681.468,190.912 L694.052,190.912 L694.052,188.448 L681.468,188.448 Z M706.636,188.8 L706.636,122.8 L710.42,122.8 C713.324,122.8 716.668,123.24 716.668,128.608 L716.668,157.56 L716.668,182.992 C716.668,188.36 713.324,188.8 710.42,188.8 L706.636,188.8 Z M724.236,137.232 C724.236,130.104 724.236,126.76 720.804,124.208 C720.716,124.208 720.716,124.208 720.628,124.12 C720.364,123.856 720.012,123.768 719.66,123.504 C717.812,122.184 714.996,120.688 710.068,120.688 L706.636,120.688 L706.636,120.6 L699.156,120.6 L699.156,190.912 L704.172,190.912 L706.636,190.912 L710.068,190.912 C714.996,190.912 717.812,189.416 719.66,188.096 C720.012,187.832 720.364,187.744 720.628,187.48 C720.716,187.48 720.716,187.392 720.804,187.392 C724.236,184.84 724.236,181.496 724.236,174.368 L724.236,163.104 L724.236,137.232 Z M751.956,143.832 L756.356,142.688 C756.796,142.424 757.236,141.896 757.236,141.28 L757.236,127.904 C757.236,127.2 756.796,126.32 756.18,125.88 L754.772,125 C749.404,121.04 747.468,120.16 744.652,120.16 C742.804,120.16 741.308,120.424 739.108,121.832 L737.436,122.888 C736.38,123.592 734.796,124.472 733.036,125.792 C732.42,126.232 732.068,126.76 732.068,127.552 L732.068,139.52 C732.068,140.136 732.332,141.016 732.596,141.632 L749.14,172.344 C749.404,172.96 749.668,173.752 749.668,174.368 L749.668,183.52 C749.668,188.448 746.06,189.328 744.652,189.328 C743.244,189.328 739.636,188.448 739.636,183.432 L739.636,171.992 L737.348,167.768 L732.948,168.912 C732.508,169.176 732.068,169.704 732.068,170.32 L732.068,183.784 C732.068,184.4 732.508,185.28 733.124,185.72 L735.06,186.952 C740.164,190.472 741.924,191.44 744.652,191.44 C747.468,191.44 749.228,190.472 754.332,186.952 L756.268,185.632 C756.884,185.192 757.236,184.664 757.236,183.872 L757.236,171.904 C757.236,171.288 756.972,170.408 756.708,169.792 L740.164,139.08 C739.9,138.464 739.636,137.672 739.636,137.056 L739.636,128.08 C739.636,123.152 743.244,122.272 744.652,122.272 C746.06,122.272 749.668,123.152 749.668,128.08 L749.668,139.608 L751.956,143.832 Z M765.508,120.6 L765.508,190.912 L766.74,190.648 L768.412,190.208 L769.644,189.944 L771.844,189.328 C772.548,189.064 773.076,188.448 773.076,187.832 L773.076,120.6 L765.508,120.6 Z M789.004,188.8 L789.004,122.8 L792.788,122.8 C795.692,122.8 799.036,123.24 799.036,128.608 L799.036,157.56 L799.036,182.992 C799.036,188.36 795.692,188.8 792.788,188.8 L789.004,188.8 Z M806.604,137.232 C806.604,130.104 806.604,126.76 803.172,124.208 C803.084,124.208 803.084,124.208 802.996,124.12 C802.732,123.856 802.38,123.768 802.028,123.504 C800.18,122.184 797.364,120.688 792.436,120.688 L789.004,120.688 L789.004,120.6 L781.524,120.6 L781.524,190.912 L786.54,190.912 L789.004,190.912 L792.436,190.912 C797.364,190.912 800.18,189.416 802.028,188.096 C802.38,187.832 802.732,187.744 802.996,187.48 C803.084,187.48 803.084,187.392 803.172,187.392 C806.604,184.84 806.604,181.496 806.604,174.368 L806.604,163.104 L806.604,137.232 Z M834.852,123.152 L834.852,120.6 L822.268,120.6 L818.924,120.6 L814.788,120.6 L814.788,190.912 L818.924,190.912 L822.268,190.912 L834.852,190.912 L834.852,188.448 L822.268,188.448 L822.268,154.656 L831.772,152.28 L831.772,149.816 L822.268,152.192 L822.268,123.152 L834.852,123.152 Z" id="WILDSIDE" sketch:type="MSShapeGroup"></path>
            </g>
        </g>
    </g>
</svg>